<svg xmlns="http://www.w3.org/2000/svg" viewBox="0 0 96 96" preserveAspectRatio="xMidYMid meet" style="width: 200px; height: 200px; transform-origin: 50% 50%; transform: scaleX(1) scaleY(1) rotate(0deg);"><defs><style>.cls-1{fill:#ebf4ff;}.cls-2{fill:none;stroke:#283d54;stroke-linecap:round;stroke-linejoin:round;stroke-width:2px;}.cls-3{fill:#fc9a9a;}</style></defs><title/><g id="_6.Emoji-Smile"><circle class="cls-1" cx="48" cy="48" r="47" style="fill:#FFFFFF"/><path class="cls-2" d="M84.989,19A47.042,47.042,0,1,1,82,15.55"/><path class="cls-2" d="M18,42a9,9,0,0,1,18,0"/><path class="cls-2" d="M60,42a9,9,0,0,1,18,0"/><g id="_Group_"><path class="cls-3" d="M61,64s3,8-3,9-7-8-7-8v-.07a48.5,48.5,0,0,0,9.87-1.42Z"/><path class="cls-2" d="M74,56a11.849,11.849,0,0,1-2,2.09,27.765,27.765,0,0,1-11.13,5.42A48.5,48.5,0,0,1,51,64.93c-.96.05-1.96.07-3,.07-13.75,0-20.88-4.25-24-6.91A11.849,11.849,0,0,1,22,56"/><path class="cls-2" d="M51,65s1,9,7,8,3-9,3-9"/></g></g></svg>