<svg xmlns="http://www.w3.org/2000/svg" viewBox="0 0 96 96" preserveAspectRatio="xMidYMid meet" style="width: 200px; height: 200px; transform-origin: 50% 50%; transform: scaleX(1) scaleY(1) rotate(0deg);"><defs><style>.cls-1{fill:#ebf4ff;}.cls-2{fill:none;stroke:#283d54;stroke-linecap:round;stroke-linejoin:round;stroke-width:2px;}.cls-3{fill:#fff;}</style></defs><title/><g id="_16.Emoji-Cry"><circle class="cls-1" cx="48" cy="48" r="47" style="fill:#FFFFFF"/><path class="cls-2" d="M84.989,19A47.042,47.042,0,1,1,82,15.55"/><g id="_Group_"><path class="cls-2" d="M25.038,73a24.012,24.012,0,0,1,45.924,0"/></g><path class="cls-2" d="M78,29a9,9,0,0,1-18,0"/><path class="cls-2" d="M36,29a9,9,0,0,1-18,0"/><g id="_Group_2"><path class="cls-3" d="M82,50.21a5.439,5.439,0,0,1,.08.79,3.99,3.99,0,0,1-7.86.98.622.622,0,0,1-.07-.29,3.841,3.841,0,0,1-.07-.69c0-.72,1-9,1-9,5.43,2.33,6.65,6.46,6.92,8.19Z" style="fill:#FFFFFF"/><path class="cls-3" d="M20.92,42s1,8.28,1,9a3.841,3.841,0,0,1-.07.69.622.622,0,0,1-.07.29A3.99,3.99,0,0,1,13.92,51a5.439,5.439,0,0,1,.08-.79v-.02C14.27,48.46,15.49,44.33,20.92,42Z" style="fill:#FFFFFF"/><path class="cls-2" d="M82,50.21v-.02c-.27-1.73-1.49-5.86-6.92-8.19,0,0-1,8.28-1,9a3.841,3.841,0,0,0,.07.69.622.622,0,0,0,.07.29A3.99,3.99,0,0,0,82.08,51,5.439,5.439,0,0,0,82,50.21Z"/><path class="cls-2" d="M14,50.21v-.02c.27-1.73,1.49-5.86,6.92-8.19,0,0,1,8.28,1,9a3.841,3.841,0,0,1-.07.69.622.622,0,0,1-.07.29A3.99,3.99,0,0,1,13.92,51,5.439,5.439,0,0,1,14,50.21Z"/></g></g></svg>