<svg xmlns="http://www.w3.org/2000/svg" viewBox="0 0 96 96" preserveAspectRatio="xMidYMid meet" style="width: 200px; height: 200px; transform-origin: 50% 50%; transform: scaleX(1) scaleY(1) rotate(0deg);"><defs><style>.cls-1{fill:#ebf4ff;}.cls-2{fill:#c3d4ef;}.cls-3{fill:#fff;}.cls-4{fill:none;stroke:#283d54;stroke-linecap:round;stroke-linejoin:round;stroke-width:2px;}</style></defs><title/><g id="_18.Emoji-Cry"><circle class="cls-1" cx="48" cy="48" r="47" style="fill:#FFFFFF"/><g id="_Group_"><path class="cls-2" d="M27,35h5c0,4-2,4-2,8s2,4,2,8-2,4-2,8,2,4,2,8H27c0-4-2-4-2-8s2-4,2-8-2-4-2-8S27,39,27,35Z"/><path class="cls-3" d="M21,35h6c0,4-2,4-2,8s2,4,2,8-2,4-2,8,2,4,2,8H21c0-4-2-4-2-8s2-4,2-8-2-4-2-8S21,39,21,35Z" style="fill:#FFFFFF"/><polyline class="cls-4" points="18 35 21 35 27 35 32 35 36 35"/><path class="cls-4" d="M30,59c0-4,2-4,2-8s-2-4-2-8,2-4,2-8"/><path class="cls-4" d="M21,35c0,4-2,4-2,8s2,4,2,8-2,4-2,8,2,4,2,8"/><path class="cls-4" d="M27,35c0,4-2,4-2,8s2,4,2,8-2,4-2,8,2,4,2,8"/></g><g id="_Group_2"><path class="cls-2" d="M69,35H64c0,4,2,4,2,8s-2,4-2,8,2,4,2,8-2,4-2,8h5c0-4,2-4,2-8s-2-4-2-8,2-4,2-8S69,39,69,35Z"/><path class="cls-3" d="M75,35H69c0,4,2,4,2,8s-2,4-2,8,2,4,2,8-2,4-2,8h6c0-4,2-4,2-8s-2-4-2-8,2-4,2-8S75,39,75,35Z" style="fill:#FFFFFF"/><polyline class="cls-4" points="78 35 75 35 69 35 64 35 60 35"/><path class="cls-4" d="M66,59c0-4-2-4-2-8s2-4,2-8-2-4-2-8"/><path class="cls-4" d="M75,35c0,4,2,4,2,8s-2,4-2,8,2,4,2,8-2,4-2,8"/><path class="cls-4" d="M69,35c0,4,2,4,2,8s-2,4-2,8,2,4,2,8-2,4-2,8"/></g><path class="cls-4" d="M84.989,19A47.042,47.042,0,1,1,82,15.55"/><line class="cls-4" x1="31" x2="65" y1="76" y2="76"/></g></svg>